<svg width="24" height="24" viewBox="0 0 24 24" fill="none" xmlns="http://www.w3.org/2000/svg">
<mask id="path-1-inside-1_224_1112" fill="white">
<path d="M7.64668 12.374L12.7334 17.862C12.8183 17.9536 12.9311 18.0048 13.0485 18.0049C13.1659 18.005 13.2788 17.954 13.3638 17.8626L13.3693 17.8564C13.4107 17.812 13.4436 17.7587 13.4662 17.6995C13.4887 17.6403 13.5004 17.5765 13.5004 17.5121C13.5005 17.4477 13.4889 17.3839 13.4665 17.3247C13.4441 17.2654 13.4112 17.212 13.3699 17.1676L8.57981 11.9999L13.3791 6.8428C13.4204 6.79846 13.4534 6.74507 13.4759 6.68588C13.4985 6.6267 13.5101 6.56295 13.5102 6.49852C13.5102 6.43408 13.4987 6.37031 13.4762 6.31109C13.4538 6.25186 13.421 6.19841 13.3797 6.154L13.3742 6.1478C13.2893 6.05618 13.1765 6.00501 13.0591 6.00491C12.9417 6.00481 12.8288 6.05578 12.7438 6.14724L7.64734 11.6263C7.60252 11.6745 7.56682 11.7324 7.5424 11.7967C7.51799 11.8609 7.50537 11.9301 7.5053 12C7.50524 12.0699 7.51774 12.1391 7.54204 12.2034C7.56634 12.2677 7.60194 12.3257 7.64668 12.374Z"/>
</mask>
<path d="M7.64668 12.374L12.7334 17.862C12.8183 17.9536 12.9311 18.0048 13.0485 18.0049C13.1659 18.005 13.2788 17.954 13.3638 17.8626L13.3693 17.8564C13.4107 17.812 13.4436 17.7587 13.4662 17.6995C13.4887 17.6403 13.5004 17.5765 13.5004 17.5121C13.5005 17.4477 13.4889 17.3839 13.4665 17.3247C13.4441 17.2654 13.4112 17.212 13.3699 17.1676L8.57981 11.9999L13.3791 6.8428C13.4204 6.79846 13.4534 6.74507 13.4759 6.68588C13.4985 6.6267 13.5101 6.56295 13.5102 6.49852C13.5102 6.43408 13.4987 6.37031 13.4762 6.31109C13.4538 6.25186 13.421 6.19841 13.3797 6.154L13.3742 6.1478C13.2893 6.05618 13.1765 6.00501 13.0591 6.00491C12.9417 6.00481 12.8288 6.05578 12.7438 6.14724L7.64734 11.6263C7.60252 11.6745 7.56682 11.7324 7.5424 11.7967C7.51799 11.8609 7.50537 11.9301 7.5053 12C7.50524 12.0699 7.51774 12.1391 7.54204 12.2034C7.56634 12.2677 7.60194 12.3257 7.64668 12.374Z" fill="#FFFCFC"/>
<path d="M7.64668 12.374L9.1135 11.0144L9.11347 11.0144L7.64668 12.374ZM12.7334 17.862L14.2006 16.5028L14.2003 16.5024L12.7334 17.862ZM13.0485 18.0049L13.0503 16.0049L13.0485 18.0049ZM13.3638 17.8626L14.8286 19.2244L14.8448 19.207L14.8606 19.1892L13.3638 17.8626ZM13.3693 17.8564L11.9069 16.4921L11.8895 16.5107L11.8726 16.5298L13.3693 17.8564ZM13.5004 17.5121L15.5004 17.5139L13.5004 17.5121ZM13.3699 17.1676L11.9031 18.5272L11.9051 18.5293L13.3699 17.1676ZM8.57981 11.9999L7.11571 10.6374L5.85026 11.9972L7.11303 13.3595L8.57981 11.9999ZM13.3791 6.8428L11.9166 5.47849L11.915 5.4803L13.3791 6.8428ZM13.5102 6.49852L15.5102 6.50028L13.5102 6.49852ZM13.3797 6.154L11.8805 7.47784L11.8974 7.497L11.9148 7.51573L13.3797 6.154ZM13.3742 6.1478L14.8733 4.82396L14.8576 4.80609L14.8414 4.7886L13.3742 6.1478ZM12.7438 6.14724L14.2082 7.5094L14.2086 7.50903L12.7438 6.14724ZM7.64734 11.6263L9.11172 12.9885L9.11176 12.9885L7.64734 11.6263ZM6.17985 13.7335L11.2666 19.2216L14.2003 16.5024L9.1135 11.0144L6.17985 13.7335ZM11.2663 19.2212C11.7021 19.6916 12.3343 20.0043 13.0467 20.0049L13.0503 16.0049C13.528 16.0053 13.9346 16.2157 14.2006 16.5028L11.2663 19.2212ZM13.0467 20.0049C13.7592 20.0055 14.392 19.694 14.8286 19.2244L11.8991 16.5008C12.1656 16.2141 12.5726 16.0045 13.0503 16.0049L13.0467 20.0049ZM14.8606 19.1892L14.866 19.183L11.8726 16.5298L11.8671 16.536L14.8606 19.1892ZM14.8317 19.2207C15.0574 18.9788 15.2248 18.7013 15.3352 18.4113L11.5971 16.9877C11.6625 16.816 11.764 16.6453 11.9069 16.4921L14.8317 19.2207ZM15.3352 18.4113C15.4457 18.1213 15.5002 17.8167 15.5004 17.5139L11.5004 17.5103C11.5006 17.3364 11.5318 17.1592 11.5971 16.9877L15.3352 18.4113ZM15.5004 17.5139C15.5007 17.2111 15.4467 16.9063 15.3368 16.6162L11.5962 18.0331C11.5312 17.8615 11.5003 17.6843 11.5004 17.5103L15.5004 17.5139ZM15.3368 16.6162C15.2269 16.326 15.06 16.0481 14.8348 15.8059L11.9051 18.5293C11.7625 18.3759 11.6613 18.2049 11.5962 18.0331L15.3368 16.6162ZM14.8367 15.808L10.0466 10.6403L7.11303 13.3595L11.9032 18.5272L14.8367 15.808ZM10.0439 13.3624L14.8432 8.2053L11.915 5.4803L7.11571 10.6374L10.0439 13.3624ZM14.8415 8.20711C15.0671 7.96525 15.2345 7.6877 15.345 7.39767L11.6069 5.9741C11.6722 5.80245 11.7737 5.63167 11.9166 5.47849L14.8415 8.20711ZM15.345 7.39767C15.4554 7.10773 15.5099 6.80308 15.5102 6.50028L11.5102 6.49675C11.5103 6.32282 11.5415 6.14566 11.6069 5.9741L15.345 7.39767ZM15.5102 6.50028C15.5104 6.19749 15.4565 5.89274 15.3466 5.60261L11.6059 7.01957C11.5409 6.84789 11.51 6.67068 11.5102 6.49675L15.5102 6.50028ZM15.3466 5.60261C15.2366 5.31239 15.0697 5.03454 14.8445 4.79227L11.9148 7.51573C11.7722 7.36229 11.671 7.19134 11.6059 7.01957L15.3466 5.60261ZM14.8788 4.83016L14.8733 4.82396L11.875 7.47164L11.8805 7.47784L14.8788 4.83016ZM14.8414 4.7886C14.4056 4.31821 13.7734 4.00554 13.0609 4.00491L13.0573 8.00491C12.5796 8.00449 12.173 7.79415 11.907 7.507L14.8414 4.7886ZM13.0609 4.00491C12.3484 4.00428 11.7156 4.31583 11.279 4.78545L14.2086 7.50903C13.942 7.79572 13.5351 8.00533 13.0573 8.00491L13.0609 4.00491ZM11.2794 4.78508L6.18292 10.2641L9.11176 12.9885L14.2082 7.5094L11.2794 4.78508ZM6.18295 10.2641C5.95454 10.5097 5.78488 10.7915 5.67287 11.0861L9.41193 12.5072C9.34875 12.6734 9.2505 12.8393 9.11172 12.9885L6.18295 10.2641ZM5.67287 11.0861C5.56091 11.3807 5.50558 11.6904 5.5053 11.9982L9.5053 12.0018C9.50515 12.1698 9.47507 12.3411 9.41193 12.5072L5.67287 11.0861ZM5.5053 11.9982C5.50503 12.3061 5.55981 12.6158 5.67126 12.9106L9.41282 11.4961C9.47567 11.6624 9.50545 11.8337 9.5053 12.0018L5.5053 11.9982ZM5.67126 12.9106C5.78275 13.2055 5.95191 13.4876 6.17988 13.7336L9.11347 11.0144C9.25197 11.1638 9.34994 11.3298 9.41282 11.4961L5.67126 12.9106Z" fill="#FFFCFC" mask="url(#path-1-inside-1_224_1112)"/>
<circle cx="12" cy="12" r="11.5" stroke="#FFFCFC"/>
</svg>
