<svg width="393" height="491" viewBox="0 0 393 491" fill="none" xmlns="http://www.w3.org/2000/svg">
<g filter="url(#filter0_biiiii_360_325)">
<path d="M227.345 10H116.391C66.2378 10 41.1612 10 25.5806 25.3075C10 40.615 10 65.2521 10 114.526V375.842C10 425.116 10 449.753 25.5806 465.061C41.1612 480.368 66.2378 480.368 116.391 480.368H275.977C326.131 480.368 351.207 480.368 366.788 465.061C382.368 449.753 382.368 425.116 382.368 375.842V162.306C382.368 151.625 382.368 146.284 380.344 141.482C378.319 136.68 374.475 132.903 366.788 125.35L264.96 25.3075C257.273 17.7547 253.429 13.9783 248.541 11.9891C243.653 10 238.217 10 227.345 10Z" fill="#FFBB2D" fill-opacity="0.15"/>
<path d="M227.345 10H116.391C66.2378 10 41.1612 10 25.5806 25.3075C10 40.615 10 65.2521 10 114.526V375.842C10 425.116 10 449.753 25.5806 465.061C41.1612 480.368 66.2378 480.368 116.391 480.368H275.977C326.131 480.368 351.207 480.368 366.788 465.061C382.368 449.753 382.368 425.116 382.368 375.842V162.306C382.368 151.625 382.368 146.284 380.344 141.482C378.319 136.68 374.475 132.903 366.788 125.35L264.96 25.3075C257.273 17.7547 253.429 13.9783 248.541 11.9891C243.653 10 238.217 10 227.345 10Z" stroke="#FFBB2D" stroke-width="19.5987"/>
</g>
<path d="M222.786 10V114.526C222.786 139.163 222.786 151.482 230.576 159.136C238.367 166.789 250.905 166.789 275.982 166.789H382.373" stroke="#FFBB2D" stroke-width="19.5987"/>
<path d="M103.797 311.043C96.8302 311.043 91.6243 305.76 91.6243 298.947C91.6243 292.133 96.8302 286.851 103.797 286.851C110.84 286.851 115.97 292.133 115.97 298.947C115.97 305.76 110.84 311.043 103.797 311.043ZM122.073 309.512V297.875L166.706 241.912V240.61H122.455V225.835H189.213V238.543L146.188 293.435V294.813H189.902V309.512H122.073ZM203.814 211.825C197.537 211.825 192.407 206.848 192.407 200.571C192.407 194.369 197.537 189.317 203.814 189.317C210.016 189.317 215.145 194.369 215.145 200.571C215.145 206.848 210.016 211.825 203.814 211.825ZM194.245 309.512V225.835H213.308V309.512H194.245ZM219.487 337.302V225.835H238.55V238.926H239.852C244.445 229.816 253.555 224.456 265.269 224.456C286.245 224.456 299.643 241.146 299.643 267.635V267.788C299.643 294.43 286.475 310.89 265.269 310.89C253.785 310.89 244.215 305.225 239.852 296.191H238.55V337.302H219.487ZM259.297 294.813C272.312 294.813 280.197 284.554 280.197 267.788V267.635C280.197 250.792 272.312 240.534 259.297 240.534C246.359 240.534 238.32 250.792 238.32 267.558V267.711C238.32 284.477 246.359 294.813 259.297 294.813Z" fill="#FFBB2D"/>
<defs>
<filter id="filter0_biiiii_360_325" x="-38.9967" y="-38.9981" width="470.364" height="568.363" filterUnits="userSpaceOnUse" color-interpolation-filters="sRGB">
<feFlood flood-opacity="0" result="BackgroundImageFix"/>
<feGaussianBlur in="BackgroundImageFix" stdDeviation="19.5987"/>
<feComposite in2="SourceAlpha" operator="in" result="effect1_backgroundBlur_360_325"/>
<feBlend mode="normal" in="SourceGraphic" in2="effect1_backgroundBlur_360_325" result="shape"/>
<feColorMatrix in="SourceAlpha" type="matrix" values="0 0 0 0 0 0 0 0 0 0 0 0 0 0 0 0 0 0 127 0" result="hardAlpha"/>
<feOffset dx="9.79934" dy="19.5987"/>
<feGaussianBlur stdDeviation="4.89967"/>
<feComposite in2="hardAlpha" operator="arithmetic" k2="-1" k3="1"/>
<feColorMatrix type="matrix" values="0 0 0 0 1 0 0 0 0 0.733333 0 0 0 0 0.176471 0 0 0 1 0"/>
<feBlend mode="normal" in2="shape" result="effect2_innerShadow_360_325"/>
<feColorMatrix in="SourceAlpha" type="matrix" values="0 0 0 0 0 0 0 0 0 0 0 0 0 0 0 0 0 0 127 0" result="hardAlpha"/>
<feOffset dy="9.79934"/>
<feGaussianBlur stdDeviation="215.586"/>
<feComposite in2="hardAlpha" operator="arithmetic" k2="-1" k3="1"/>
<feColorMatrix type="matrix" values="0 0 0 0 1 0 0 0 0 0.733333 0 0 0 0 0.176471 0 0 0 0.3 0"/>
<feBlend mode="normal" in2="effect2_innerShadow_360_325" result="effect3_innerShadow_360_325"/>
<feColorMatrix in="SourceAlpha" type="matrix" values="0 0 0 0 0 0 0 0 0 0 0 0 0 0 0 0 0 0 127 0" result="hardAlpha"/>
<feOffset dy="-9.79934"/>
<feGaussianBlur stdDeviation="19.5987"/>
<feComposite in2="hardAlpha" operator="arithmetic" k2="-1" k3="1"/>
<feColorMatrix type="matrix" values="0 0 0 0 1 0 0 0 0 0.733333 0 0 0 0 0.176471 0 0 0 0.5 0"/>
<feBlend mode="normal" in2="effect3_innerShadow_360_325" result="effect4_innerShadow_360_325"/>
<feColorMatrix in="SourceAlpha" type="matrix" values="0 0 0 0 0 0 0 0 0 0 0 0 0 0 0 0 0 0 127 0" result="hardAlpha"/>
<feOffset dy="9.79934"/>
<feGaussianBlur stdDeviation="19.5987"/>
<feComposite in2="hardAlpha" operator="arithmetic" k2="-1" k3="1"/>
<feColorMatrix type="matrix" values="0 0 0 0 1 0 0 0 0 0.733333 0 0 0 0 0.176471 0 0 0 0.3 0"/>
<feBlend mode="normal" in2="effect4_innerShadow_360_325" result="effect5_innerShadow_360_325"/>
<feColorMatrix in="SourceAlpha" type="matrix" values="0 0 0 0 0 0 0 0 0 0 0 0 0 0 0 0 0 0 127 0" result="hardAlpha"/>
<feOffset dy="39.1974"/>
<feGaussianBlur stdDeviation="48.9967"/>
<feComposite in2="hardAlpha" operator="arithmetic" k2="-1" k3="1"/>
<feColorMatrix type="matrix" values="0 0 0 0 1 0 0 0 0 0.988235 0 0 0 0 0.988235 0 0 0 0.25 0"/>
<feBlend mode="normal" in2="effect5_innerShadow_360_325" result="effect6_innerShadow_360_325"/>
</filter>
</defs>
</svg>
