<svg width="40" height="50" viewBox="0 0 40 50" fill="none" xmlns="http://www.w3.org/2000/svg">
<g filter="url(#filter0_biiiii_360_325)">
<path d="M23.1796 1H11.857C6.73894 1 4.17993 1 2.58996 2.5621C1 4.12419 1 6.63835 1 11.6667V38.3333C1 43.3616 1 45.8758 2.58996 47.4379C4.17993 49 6.73893 49 11.8569 49H28.1424C33.2604 49 35.8194 49 37.4094 47.4379C38.9993 45.8758 38.9993 43.3616 38.9993 38.3333V16.5425C38.9993 15.4525 38.9993 14.9075 38.7927 14.4174C38.5861 13.9274 38.1939 13.542 37.4094 12.7712L27.0181 2.5621C26.2336 1.79135 25.8414 1.40598 25.3426 1.20299C24.8438 1 24.289 1 23.1796 1Z" fill="#FFBB2D" fill-opacity="0.15"/>
<path d="M23.1796 1H11.857C6.73894 1 4.17993 1 2.58996 2.5621C1 4.12419 1 6.63835 1 11.6667V38.3333C1 43.3616 1 45.8758 2.58996 47.4379C4.17993 49 6.73893 49 11.8569 49H28.1424C33.2604 49 35.8194 49 37.4094 47.4379C38.9993 45.8758 38.9993 43.3616 38.9993 38.3333V16.5425C38.9993 15.4525 38.9993 14.9075 38.7927 14.4174C38.5861 13.9274 38.1939 13.542 37.4094 12.7712L27.0181 2.5621C26.2336 1.79135 25.8414 1.40598 25.3426 1.20299C24.8438 1 24.289 1 23.1796 1Z" stroke="#FFBB2D" stroke-width="2"/>
</g>
<path d="M22.7144 1V11.6667C22.7144 14.1808 22.7144 15.4379 23.5093 16.219C24.3043 17 25.5838 17 28.1428 17H38.9998" stroke="#FFBB2D" stroke-width="2"/>
<path d="M10.5718 31.5156C9.86084 31.5156 9.32959 30.9766 9.32959 30.2812C9.32959 29.5859 9.86084 29.0469 10.5718 29.0469C11.2905 29.0469 11.814 29.5859 11.814 30.2812C11.814 30.9766 11.2905 31.5156 10.5718 31.5156ZM12.4368 31.3594V30.1719L16.9915 24.4609V24.3281H12.4758V22.8203H19.2883V24.1172L14.8977 29.7188V29.8594H19.3587V31.3594H12.4368ZM20.7783 21.3906C20.1377 21.3906 19.6143 20.8828 19.6143 20.2422C19.6143 19.6094 20.1377 19.0938 20.7783 19.0938C21.4112 19.0938 21.9346 19.6094 21.9346 20.2422C21.9346 20.8828 21.4112 21.3906 20.7783 21.3906ZM19.8018 31.3594V22.8203H21.7471V31.3594H19.8018ZM22.3777 34.1953V22.8203H24.323V24.1562H24.4558C24.9246 23.2266 25.8543 22.6797 27.0496 22.6797C29.1902 22.6797 30.5574 24.3828 30.5574 27.0859V27.1016C30.5574 29.8203 29.2137 31.5 27.0496 31.5C25.8777 31.5 24.9012 30.9219 24.4558 30H24.323V34.1953H22.3777ZM26.4402 29.8594C27.7683 29.8594 28.573 28.8125 28.573 27.1016V27.0859C28.573 25.3672 27.7683 24.3203 26.4402 24.3203C25.1199 24.3203 24.2996 25.3672 24.2996 27.0781V27.0938C24.2996 28.8047 25.1199 29.8594 26.4402 29.8594Z" fill="#FFBB2D"/>
<defs>
<filter id="filter0_biiiii_360_325" x="-4" y="-4" width="47.9995" height="58" filterUnits="userSpaceOnUse" color-interpolation-filters="sRGB">
<feFlood flood-opacity="0" result="BackgroundImageFix"/>
<feGaussianBlur in="BackgroundImageFix" stdDeviation="2"/>
<feComposite in2="SourceAlpha" operator="in" result="effect1_backgroundBlur_360_325"/>
<feBlend mode="normal" in="SourceGraphic" in2="effect1_backgroundBlur_360_325" result="shape"/>
<feColorMatrix in="SourceAlpha" type="matrix" values="0 0 0 0 0 0 0 0 0 0 0 0 0 0 0 0 0 0 127 0" result="hardAlpha"/>
<feOffset dx="1" dy="2"/>
<feGaussianBlur stdDeviation="0.5"/>
<feComposite in2="hardAlpha" operator="arithmetic" k2="-1" k3="1"/>
<feColorMatrix type="matrix" values="0 0 0 0 1 0 0 0 0 0.733333 0 0 0 0 0.176471 0 0 0 1 0"/>
<feBlend mode="normal" in2="shape" result="effect2_innerShadow_360_325"/>
<feColorMatrix in="SourceAlpha" type="matrix" values="0 0 0 0 0 0 0 0 0 0 0 0 0 0 0 0 0 0 127 0" result="hardAlpha"/>
<feOffset dy="1"/>
<feGaussianBlur stdDeviation="22"/>
<feComposite in2="hardAlpha" operator="arithmetic" k2="-1" k3="1"/>
<feColorMatrix type="matrix" values="0 0 0 0 1 0 0 0 0 0.733333 0 0 0 0 0.176471 0 0 0 0.3 0"/>
<feBlend mode="normal" in2="effect2_innerShadow_360_325" result="effect3_innerShadow_360_325"/>
<feColorMatrix in="SourceAlpha" type="matrix" values="0 0 0 0 0 0 0 0 0 0 0 0 0 0 0 0 0 0 127 0" result="hardAlpha"/>
<feOffset dy="-1"/>
<feGaussianBlur stdDeviation="2"/>
<feComposite in2="hardAlpha" operator="arithmetic" k2="-1" k3="1"/>
<feColorMatrix type="matrix" values="0 0 0 0 1 0 0 0 0 0.733333 0 0 0 0 0.176471 0 0 0 0.5 0"/>
<feBlend mode="normal" in2="effect3_innerShadow_360_325" result="effect4_innerShadow_360_325"/>
<feColorMatrix in="SourceAlpha" type="matrix" values="0 0 0 0 0 0 0 0 0 0 0 0 0 0 0 0 0 0 127 0" result="hardAlpha"/>
<feOffset dy="1"/>
<feGaussianBlur stdDeviation="2"/>
<feComposite in2="hardAlpha" operator="arithmetic" k2="-1" k3="1"/>
<feColorMatrix type="matrix" values="0 0 0 0 1 0 0 0 0 0.733333 0 0 0 0 0.176471 0 0 0 0.3 0"/>
<feBlend mode="normal" in2="effect4_innerShadow_360_325" result="effect5_innerShadow_360_325"/>
<feColorMatrix in="SourceAlpha" type="matrix" values="0 0 0 0 0 0 0 0 0 0 0 0 0 0 0 0 0 0 127 0" result="hardAlpha"/>
<feOffset dy="4"/>
<feGaussianBlur stdDeviation="5"/>
<feComposite in2="hardAlpha" operator="arithmetic" k2="-1" k3="1"/>
<feColorMatrix type="matrix" values="0 0 0 0 1 0 0 0 0 0.988235 0 0 0 0 0.988235 0 0 0 0.25 0"/>
<feBlend mode="normal" in2="effect5_innerShadow_360_325" result="effect6_innerShadow_360_325"/>
</filter>
</defs>
</svg>
