<svg width="82" height="37" viewBox="0 0 82 37" fill="none" xmlns="http://www.w3.org/2000/svg">
<path d="M11.1413 29.0335L5.11963 34.1844L5.8639 24.5354L11.1413 29.0335ZM11.3264 28.8752L11.3262 28.8754C11.3263 28.8753 11.3264 28.8753 11.3264 28.8752L11.4507 29.036L11.3264 28.8752Z" fill="#FFBB2D" stroke="#FFBB2D"/>
<g filter="url(#filter0_biiiii_360_361)">
<rect x="2.4707" width="79.5295" height="30.0415" rx="15.0208" fill="#FFBB2D" fill-opacity="0.15"/>
<rect x="3.4707" y="1" width="77.5295" height="28.0415" rx="14.0208" stroke="#FFBB2D" stroke-width="2"/>
</g>
<path d="M29.312 5.00781L29.312 25.0355" stroke="#FFBB2D" stroke-linecap="round"/>
<path d="M31.3003 5.00781L31.3003 25.0355" stroke="#FFBB2D" stroke-linecap="round"/>
<path d="M61.1235 5.00781L61.1235 25.0355" stroke="#FFBB2D" stroke-linecap="round"/>
<path d="M49.1943 5.00781L49.1943 25.0355" stroke="#FFBB2D" stroke-linecap="round"/>
<path d="M45.2178 5.00781L45.2178 25.0355" stroke="#FFBB2D" stroke-linecap="round"/>
<path d="M47.2061 5.00781L47.2061 25.0355" stroke="#FFBB2D" stroke-linecap="round"/>
<path d="M33.2886 8.01172L33.2886 22.0311" stroke="#FFBB2D" stroke-linecap="round"/>
<path d="M67.0884 7.01172L67.0884 21.0311" stroke="#FFBB2D" stroke-linecap="round"/>
<path d="M57.1475 8.01172L57.1475 22.0311" stroke="#FFBB2D" stroke-linecap="round"/>
<path d="M59.1357 8.01172L59.1357 22.0311" stroke="#FFBB2D" stroke-linecap="round"/>
<path d="M35.2769 6.00781L35.2769 24.0327" stroke="#FFBB2D" stroke-linecap="round"/>
<path d="M37.2651 6.00781L37.2651 24.0327" stroke="#FFBB2D" stroke-linecap="round"/>
<path d="M65.1001 6.00781L65.1001 24.0327" stroke="#FFBB2D" stroke-linecap="round"/>
<path d="M63.1118 6.00781L63.1118 24.0327" stroke="#FFBB2D" stroke-linecap="round"/>
<path d="M39.2529 10.0156L39.2529 20.0295" stroke="#FFBB2D" stroke-linecap="round"/>
<path d="M69.0767 10.0156L69.0767 20.0295" stroke="#FFBB2D" stroke-linecap="round"/>
<path d="M51.1826 10.0156L51.1826 20.0295" stroke="#FFBB2D" stroke-linecap="round"/>
<path d="M41.2412 10.0156L41.2412 20.0295" stroke="#FFBB2D" stroke-linecap="round"/>
<path d="M53.1709 10.0156L53.1709 20.0295" stroke="#FFBB2D" stroke-linecap="round"/>
<path d="M43.2295 10.0156L43.2295 20.0295" stroke="#FFBB2D" stroke-linecap="round"/>
<path d="M71.0649 10.0156L71.0649 20.0295" stroke="#FFBB2D" stroke-linecap="round"/>
<path d="M55.1592 10.0156L55.1592 20.0295" stroke="#FFBB2D" stroke-linecap="round"/>
<path d="M23.4758 14.5778C23.8461 14.7596 23.8492 15.2865 23.481 15.4727L14.6895 19.9206C14.358 20.0882 13.966 19.8488 13.9638 19.4774L13.9122 10.6867C13.91 10.3153 14.2993 10.0712 14.6326 10.2349L23.4758 14.5778Z" fill="#FFBB2D"/>
<defs>
<filter id="filter0_biiiii_360_361" x="-1.5293" y="-4" width="87.5293" height="38.043" filterUnits="userSpaceOnUse" color-interpolation-filters="sRGB">
<feFlood flood-opacity="0" result="BackgroundImageFix"/>
<feGaussianBlur in="BackgroundImageFix" stdDeviation="2"/>
<feComposite in2="SourceAlpha" operator="in" result="effect1_backgroundBlur_360_361"/>
<feBlend mode="normal" in="SourceGraphic" in2="effect1_backgroundBlur_360_361" result="shape"/>
<feColorMatrix in="SourceAlpha" type="matrix" values="0 0 0 0 0 0 0 0 0 0 0 0 0 0 0 0 0 0 127 0" result="hardAlpha"/>
<feOffset dx="1" dy="2"/>
<feGaussianBlur stdDeviation="0.5"/>
<feComposite in2="hardAlpha" operator="arithmetic" k2="-1" k3="1"/>
<feColorMatrix type="matrix" values="0 0 0 0 1 0 0 0 0 0.733333 0 0 0 0 0.176471 0 0 0 1 0"/>
<feBlend mode="normal" in2="shape" result="effect2_innerShadow_360_361"/>
<feColorMatrix in="SourceAlpha" type="matrix" values="0 0 0 0 0 0 0 0 0 0 0 0 0 0 0 0 0 0 127 0" result="hardAlpha"/>
<feOffset dy="1"/>
<feGaussianBlur stdDeviation="22"/>
<feComposite in2="hardAlpha" operator="arithmetic" k2="-1" k3="1"/>
<feColorMatrix type="matrix" values="0 0 0 0 1 0 0 0 0 0.733333 0 0 0 0 0.176471 0 0 0 0.3 0"/>
<feBlend mode="normal" in2="effect2_innerShadow_360_361" result="effect3_innerShadow_360_361"/>
<feColorMatrix in="SourceAlpha" type="matrix" values="0 0 0 0 0 0 0 0 0 0 0 0 0 0 0 0 0 0 127 0" result="hardAlpha"/>
<feOffset dy="-1"/>
<feGaussianBlur stdDeviation="2"/>
<feComposite in2="hardAlpha" operator="arithmetic" k2="-1" k3="1"/>
<feColorMatrix type="matrix" values="0 0 0 0 1 0 0 0 0 0.733333 0 0 0 0 0.176471 0 0 0 0.5 0"/>
<feBlend mode="normal" in2="effect3_innerShadow_360_361" result="effect4_innerShadow_360_361"/>
<feColorMatrix in="SourceAlpha" type="matrix" values="0 0 0 0 0 0 0 0 0 0 0 0 0 0 0 0 0 0 127 0" result="hardAlpha"/>
<feOffset dy="1"/>
<feGaussianBlur stdDeviation="2"/>
<feComposite in2="hardAlpha" operator="arithmetic" k2="-1" k3="1"/>
<feColorMatrix type="matrix" values="0 0 0 0 1 0 0 0 0 0.733333 0 0 0 0 0.176471 0 0 0 0.3 0"/>
<feBlend mode="normal" in2="effect4_innerShadow_360_361" result="effect5_innerShadow_360_361"/>
<feColorMatrix in="SourceAlpha" type="matrix" values="0 0 0 0 0 0 0 0 0 0 0 0 0 0 0 0 0 0 127 0" result="hardAlpha"/>
<feOffset dy="4"/>
<feGaussianBlur stdDeviation="5"/>
<feComposite in2="hardAlpha" operator="arithmetic" k2="-1" k3="1"/>
<feColorMatrix type="matrix" values="0 0 0 0 1 0 0 0 0 0.988235 0 0 0 0 0.988235 0 0 0 0.25 0"/>
<feBlend mode="normal" in2="effect5_innerShadow_360_361" result="effect6_innerShadow_360_361"/>
</filter>
</defs>
</svg>
