<svg width="14" height="14" viewBox="0 0 14 14" fill="none" xmlns="http://www.w3.org/2000/svg">
<path d="M8.24874 7L13.9085 1.34062C14.0303 1.21865 14.0303 1.02103 13.9085 0.899058L13.1013 0.0914396C13.0427 0.0330363 12.9631 0 12.8804 0C12.7975 0 12.718 0.0330363 12.6594 0.0914396L6.99983 5.75096L1.34024 0.0914396C1.22298 -0.0258096 1.01547 -0.0256621 0.898517 0.0914396L0.0914777 0.899058C-0.0304926 1.02103 -0.0304926 1.21865 0.0914777 1.34062L5.75108 7L0.0914777 12.6594C-0.0304926 12.7813 -0.0304926 12.979 0.0914777 13.1009L0.898664 13.9086C0.957216 13.967 1.03671 14 1.1196 14C1.20248 14 1.28183 13.967 1.34038 13.9086L6.99998 8.24904L12.6596 13.9086C12.7181 13.967 12.7978 14 12.8805 14C12.9633 14 13.0429 13.967 13.1014 13.9086L13.9086 13.1009C14.0305 12.979 14.0305 12.7813 13.9086 12.6594L8.24874 7Z" fill="#171A21"/>
</svg>
