<svg width="17" height="18" viewBox="0 0 17 18" fill="none" xmlns="http://www.w3.org/2000/svg">
<path fill-rule="evenodd" clip-rule="evenodd" d="M10.34 5.1966e-08C10.7248 9.75029e-05 11.0998 0.118485 11.4119 0.338393C11.724 0.5583 11.9573 0.86858 12.0789 1.22528L12.5767 2.68702H15.5833C15.8264 2.68702 16.0596 2.78139 16.2315 2.94936C16.4034 3.11733 16.5 3.34515 16.5 3.5827C16.5 3.82025 16.4034 4.04806 16.2315 4.21603C16.0596 4.38401 15.8264 4.47837 15.5833 4.47837L15.5806 4.54196L14.7858 15.4181C14.7362 16.0958 14.4257 16.73 13.9169 17.193C13.408 17.656 12.7385 17.9134 12.0432 17.9135H4.45683C3.7615 17.9134 3.09202 17.656 2.58314 17.193C2.07426 16.73 1.76377 16.0958 1.71417 15.4181L0.919416 4.54107C0.917758 4.52021 0.916841 4.4993 0.916667 4.47837C0.673552 4.47837 0.440394 4.38401 0.268485 4.21603C0.0965771 4.04806 0 3.82025 0 3.5827C0 3.34515 0.0965771 3.11733 0.268485 2.94936C0.440394 2.78139 0.673552 2.68702 0.916667 2.68702H3.92333L4.42108 1.22528C4.54272 0.868435 4.77623 0.558052 5.08851 0.338131C5.40078 0.11821 5.77598 -9.05179e-05 6.16092 5.1966e-08H10.34ZM5.5 7.16539C5.27548 7.16542 5.05877 7.24597 4.89099 7.39175C4.72321 7.53752 4.61602 7.7384 4.58975 7.95628L4.58333 8.06107V13.4351C4.58359 13.6634 4.67306 13.883 4.83344 14.049C4.99383 14.215 5.21304 14.3149 5.44628 14.3283C5.67952 14.3416 5.90918 14.2675 6.08835 14.121C6.26751 13.9744 6.38266 13.7666 6.41025 13.5399L6.41667 13.4351V8.06107C6.41667 7.82352 6.32009 7.5957 6.14818 7.42773C5.97627 7.25976 5.74312 7.16539 5.5 7.16539ZM11 7.16539C10.7569 7.16539 10.5237 7.25976 10.3518 7.42773C10.1799 7.5957 10.0833 7.82352 10.0833 8.06107V13.4351C10.0833 13.6727 10.1799 13.9005 10.3518 14.0685C10.5237 14.2364 10.7569 14.3308 11 14.3308C11.2431 14.3308 11.4763 14.2364 11.6482 14.0685C11.8201 13.9005 11.9167 13.6727 11.9167 13.4351V8.06107C11.9167 7.82352 11.8201 7.5957 11.6482 7.42773C11.4763 7.25976 11.2431 7.16539 11 7.16539ZM10.34 1.79135H6.16L5.85475 2.68702H10.6453L10.34 1.79135Z" fill="#E91414"/>
</svg>
