<svg width="24" height="20" viewBox="0 0 24 20" fill="none" xmlns="http://www.w3.org/2000/svg">
<path d="M0 3.75H21.5C22.8807 3.75 24 4.86929 24 6.25V6.25H0V3.75Z" fill="#171A21"/>
<path d="M0 8.75H24V15.2C24 16.8802 24 17.7202 23.673 18.362C23.3854 18.9265 22.9265 19.3854 22.362 19.673C21.7202 20 20.8802 20 19.2 20H4.8C3.11984 20 2.27976 20 1.63803 19.673C1.07354 19.3854 0.614601 18.9265 0.32698 18.362C0 17.7202 0 16.8802 0 15.2V8.75Z" fill="#171A21"/>
<path d="M0 3.75C0 2.10626 0 1.28439 0.453979 0.731213C0.537088 0.629945 0.629945 0.537088 0.731213 0.453979C1.28439 0 2.10626 0 3.75 0H7.75154C8.53287 0 8.92353 0 9.27791 0.140141C9.6323 0.280283 9.9173 0.547472 10.4873 1.08185L13.3333 3.75H0V3.75Z" fill="#171A21"/>
<path d="M13.2981 18.711L13.2833 15.2685L14.8592 15.6656C14.9651 15.6923 15.0783 15.66 15.1461 15.5843C15.2141 15.508 15.2246 15.4043 15.1717 15.3186L12.6327 11.2426C12.5846 11.1661 12.493 11.1182 12.3941 11.1185C12.2944 11.1189 12.2038 11.1674 12.1563 11.2443L9.64995 15.3379C9.59775 15.4232 9.60907 15.5276 9.67766 15.6033C9.74683 15.6786 9.86031 15.7101 9.96535 15.6826L11.5359 15.2753L11.5505 18.7171C11.5523 19.143 11.9448 19.488 12.4275 19.4863C12.91 19.4846 13.2998 19.1369 13.2981 18.711Z" fill="#F0EFEA"/>
</svg>
