<svg width="22" height="22" viewBox="0 0 22 22" fill="none" xmlns="http://www.w3.org/2000/svg">
<path d="M11.0004 7.07623C9.91461 7.07623 8.87331 7.48999 8.10555 8.22651C7.3378 8.96302 6.90647 9.96195 6.90647 11.0035C6.90647 12.0451 7.3378 13.044 8.10555 13.7806C8.87331 14.5171 9.91461 14.9308 11.0004 14.9308C12.0862 14.9308 13.1274 14.5171 13.8952 13.7806C14.663 13.044 15.0943 12.0451 15.0943 11.0035C15.0943 9.96195 14.663 8.96302 13.8952 8.22651C13.1274 7.48999 12.0862 7.07623 11.0004 7.07623ZM8.54404 11.0035C8.54404 10.3786 8.80283 9.77923 9.26348 9.33732C9.72414 8.89541 10.3489 8.64715 11.0004 8.64715C11.6518 8.64715 12.2766 8.89541 12.7373 9.33732C13.1979 9.77923 13.4567 10.3786 13.4567 11.0035C13.4567 11.6285 13.1979 12.2278 12.7373 12.6698C12.2766 13.1117 11.6518 13.3599 11.0004 13.3599C10.3489 13.3599 9.72414 13.1117 9.26348 12.6698C8.80283 12.2278 8.54404 11.6285 8.54404 11.0035ZM8.41303 21.7078C9.26047 21.9018 10.1292 22 11.0004 22C11.8708 21.9987 12.738 21.8999 13.5845 21.7055C13.8277 21.6505 14.0472 21.5246 14.2128 21.3452C14.3785 21.1657 14.4822 20.9415 14.5097 20.7032L14.7013 19.0302C14.7197 18.8477 14.7832 18.672 14.8865 18.5177C14.9898 18.3634 15.1298 18.2349 15.2951 18.1428C15.4604 18.0507 15.6462 17.9976 15.8371 17.988C16.0279 17.9785 16.2185 18.0126 16.3929 18.0876L17.9936 18.76C18.2227 18.8567 18.4776 18.8826 18.7228 18.834C18.968 18.7855 19.1913 18.6649 19.3618 18.489C20.5445 17.2665 21.4274 15.8058 21.9458 14.2137C22.0202 13.9834 22.0179 13.7367 21.9394 13.5077C21.8609 13.2787 21.7101 13.0788 21.5078 12.9358L20.0921 11.9343C19.9375 11.8262 19.8117 11.6846 19.7251 11.5209C19.6385 11.3573 19.5934 11.1763 19.5937 10.9927C19.5939 10.8092 19.6394 10.6283 19.7265 10.4649C19.8135 10.3014 19.9397 10.1601 20.0946 10.0523L21.5029 9.0548C21.7063 8.91215 21.8581 8.71198 21.937 8.48237C22.0158 8.25276 22.0178 8.00523 21.9426 7.7745C21.4251 6.18189 20.5418 4.72094 19.3577 3.49923C19.1865 3.32363 18.9627 3.20328 18.7173 3.15475C18.4718 3.10622 18.2167 3.1319 17.987 3.22825L16.3937 3.9006C16.219 3.97363 16.0289 4.00622 15.8387 3.99572C15.6486 3.98522 15.4636 3.93194 15.2988 3.84018C15.1341 3.74843 14.9941 3.62076 14.8903 3.46752C14.7865 3.31428 14.7218 3.13975 14.7013 2.95805L14.508 1.29287C14.481 1.05178 14.3759 0.82488 14.2074 0.644107C14.0389 0.463333 13.8156 0.337783 13.5689 0.285123C12.7281 0.104897 11.87 0.00933854 11.0086 0C10.142 0.00984341 9.27881 0.10539 8.43268 0.285123C8.18592 0.336882 7.96241 0.461852 7.79384 0.642311C7.62528 0.822769 7.52021 1.04956 7.49354 1.29051L7.29949 2.95726C7.27829 3.13924 7.21297 3.31392 7.10875 3.46733C7.00453 3.62073 6.86431 3.74859 6.69933 3.84067C6.53434 3.93275 6.34917 3.98648 6.15865 3.99757C5.96812 4.00866 5.77754 3.9768 5.60216 3.90453L4.00881 3.23139C3.77891 3.13772 3.52462 3.11385 3.28015 3.163C3.03569 3.21215 2.81279 3.33196 2.64144 3.5063C1.45719 4.72919 0.573147 6.19076 0.0540971 7.78393C-0.0197782 8.01407 -0.0172236 8.26055 0.0614072 8.48923C0.140038 8.71792 0.290853 8.91749 0.492964 9.0603L1.90536 10.0594C2.05922 10.168 2.1843 10.3098 2.2705 10.4733C2.35671 10.6369 2.40163 10.8175 2.40163 11.0008C2.40163 11.184 2.35671 11.3647 2.2705 11.5282C2.1843 11.6918 2.05922 11.8336 1.90536 11.9422L0.492964 12.9436C0.290089 13.0867 0.138837 13.287 0.0603092 13.5165C-0.0182183 13.746 -0.0201038 13.9933 0.0549158 14.2239C0.573726 15.8181 1.45777 17.2808 2.64226 18.5047C2.75487 18.6208 2.8914 18.7133 3.0432 18.7761C3.19499 18.839 3.35875 18.871 3.52409 18.8699C3.6903 18.8699 3.85488 18.8369 4.00799 18.7733L5.60871 18.0986C5.7833 18.0262 5.97315 17.9942 6.16301 18.005C6.35287 18.0158 6.53743 18.0692 6.70187 18.1609C6.86632 18.2525 7.00605 18.3799 7.10984 18.5328C7.21363 18.6857 7.27859 18.8598 7.29949 19.0412L7.4919 20.7111C7.51985 20.948 7.62329 21.171 7.78813 21.3495C7.95297 21.528 8.17119 21.6526 8.41303 21.7078ZM12.9171 20.2429C11.6538 20.4915 10.351 20.4915 9.08771 20.2429L8.92804 18.8762C8.85 18.2076 8.51765 17.5901 7.99463 17.1419C7.58514 16.796 7.08205 16.5682 6.54341 16.4849C6.00477 16.4015 5.45253 16.4659 4.95041 16.6706L3.63544 17.2205C2.78718 16.2887 2.1344 15.2085 1.71295 14.0393L2.87889 13.213C3.23911 12.9584 3.53191 12.6261 3.73371 12.243C3.9355 11.8599 4.04064 11.4367 4.04064 11.0075C4.04064 10.5782 3.9355 10.155 3.73371 9.77188C3.53191 9.38878 3.23911 9.05651 2.87889 8.80188L1.7154 7.97715C2.13735 6.80913 2.7901 5.73011 3.6379 4.79917L4.94795 5.34899C5.30903 5.50195 5.69952 5.58062 6.09424 5.57992C6.79716 5.57781 7.47474 5.32793 7.99814 4.87783C8.52154 4.42772 8.85423 3.80878 8.93296 3.13871L9.0918 1.7665C9.72554 1.64868 10.3691 1.58585 11.0135 1.57799C11.6538 1.58585 12.2924 1.64868 12.9212 1.7665L13.0735 3.13321C13.1494 3.80371 13.481 4.42364 14.0045 4.87379C14.4142 5.2218 14.9187 5.45089 15.459 5.53433C15.9993 5.61777 16.5532 5.55213 17.0561 5.34507L18.3661 4.79524C19.2151 5.72593 19.8685 6.80533 20.2903 7.97401L19.1251 8.7956C18.7631 9.04935 18.4685 9.38148 18.2655 9.76501C18.0625 10.1485 17.9566 10.5726 17.9566 11.0027C17.9566 11.4329 18.0625 11.857 18.2655 12.2405C18.4685 12.624 18.7631 12.9562 19.1251 13.2099L20.2894 14.0346C19.8673 15.2011 19.2155 16.2789 18.3694 17.2095L17.0594 16.6596C16.6494 16.4846 16.2021 16.4052 15.754 16.4278C15.3059 16.4503 14.8698 16.5743 14.4812 16.7896C14.0926 17.0049 13.7626 17.3053 13.5183 17.6663C13.2739 18.0273 13.1221 18.4387 13.0752 18.8668L12.9171 20.2429Z" fill="#171A21"/>
</svg>
