<svg width="17" height="18" viewBox="0 0 17 18" fill="none" xmlns="http://www.w3.org/2000/svg">
<path d="M13.6405 8.13106L14.0162 7.7334L12.8891 6.54039L10.8246 4.35498L9.69754 3.16198L9.32186 3.55965L8.5705 4.35498L1.94792 11.3652C1.60216 11.7312 1.34949 12.1852 1.20986 12.6814L0.0329524 16.9185C-0.0501623 17.2141 0.0263032 17.5343 0.235752 17.7525C0.445202 17.9707 0.744415 18.0516 1.02368 17.9672L5.02316 16.7214C5.49193 16.5736 5.9208 16.3061 6.26656 15.9401L12.8891 8.92992L13.6405 8.13106ZM5.31905 14.0574L5.01651 14.8562C4.88353 14.9653 4.73392 15.0463 4.57434 15.099L1.97451 15.9084L2.73917 13.16C2.78571 12.9875 2.8655 12.8292 2.96857 12.6919L3.72325 12.3717V13.4978C3.72325 13.8075 3.96262 14.0609 4.25518 14.0609H5.31905V14.0574ZM12.058 0.659846L11.5793 1.17013L10.8279 1.96546L10.4489 2.36313L11.5759 3.55613L13.6405 5.74154L14.7675 6.93454L15.1432 6.53688L15.8946 5.74154L16.3766 5.23126C17.2078 4.35147 17.2078 2.9262 16.3766 2.0464L15.0701 0.659846C14.2389 -0.219949 12.8925 -0.219949 12.0613 0.659846H12.058ZM10.4821 6.57207L5.69473 11.6397C5.4886 11.8579 5.1495 11.8579 4.94337 11.6397C4.73725 11.4215 4.73725 11.0625 4.94337 10.8444L9.73078 5.77673C9.93691 5.55854 10.276 5.55854 10.4821 5.77673C10.6883 5.99492 10.6883 6.35388 10.4821 6.57207Z" fill="#F0EFEA"/>
</svg>
