<svg width="8" height="4" viewBox="0 0 8 4" fill="none" xmlns="http://www.w3.org/2000/svg">
<path d="M3.97243 3.28908L0.587896 0.0882757C0.560632 0.0619297 0.528044 0.0409792 0.492015 0.0266364C0.455986 0.0122937 0.417234 0.00484321 0.377999 0.00471714C0.338764 0.00459083 0.299827 0.0117909 0.26344 0.0259006C0.227054 0.0400103 0.19394 0.0607493 0.166016 0.0869178C0.138091 0.113086 0.115911 0.144164 0.100758 0.178354C0.0856045 0.212543 0.0777795 0.249166 0.0777356 0.286101C0.0776917 0.323036 0.0854297 0.359551 0.100502 0.393533C0.115574 0.427514 0.137681 0.458287 0.165543 0.484071L3.75292 3.87636C3.80722 3.9277 3.88084 3.95691 3.95811 3.95776C4.03539 3.95861 4.11022 3.93105 4.16669 3.88093L7.89761 0.569435C7.92656 0.544278 7.94998 0.514007 7.9665 0.480375C7.98301 0.446742 7.99231 0.410415 7.99385 0.373497C7.99539 0.336578 7.98913 0.2998 7.97545 0.265292C7.96177 0.230784 7.94093 0.199231 7.91414 0.172459C7.88735 0.145686 7.85514 0.124226 7.81937 0.10932C7.78361 0.0944133 7.745 0.0863571 7.70578 0.0856172C7.66655 0.0848771 7.6275 0.0914686 7.59088 0.105009C7.55425 0.11855 7.52078 0.138771 7.4924 0.164503L3.97243 3.28908Z" fill="#F0EFEA" fill-opacity="0.7"/>
</svg>
