<svg width="22" height="22" viewBox="0 0 22 22" fill="none" xmlns="http://www.w3.org/2000/svg">
<circle cx="11" cy="11" r="10.15" stroke="#F0EFEA" stroke-width="1.7"/>
<path d="M9.88574 12.9238L9.87891 12.4385C9.81738 11.4268 10.2139 10.8115 11.1572 10.2578C12.0049 9.74512 12.292 9.37598 12.292 8.70605V8.69238C12.292 7.97461 11.7178 7.44824 10.8564 7.44824C9.97461 7.44824 9.40723 7.98828 9.35938 8.8291L9.3457 8.83594L7.75293 8.84277V8.8291C7.80078 7.22949 8.91504 6.05371 10.9453 6.05371C12.8184 6.05371 14.0693 7.13379 14.0693 8.63086V8.64453C14.0693 9.68359 13.5498 10.415 12.6201 10.9688C11.7246 11.4883 11.4717 11.8438 11.4717 12.5273V12.9238H9.88574ZM10.7539 16.1709C10.0703 16.1709 9.61914 15.7471 9.61914 15.0977C9.61914 14.4414 10.0703 14.0176 10.7539 14.0176C11.4512 14.0176 11.8887 14.4414 11.8887 15.0977C11.8887 15.7471 11.4512 16.1709 10.7539 16.1709Z" fill="#F0EFEA"/>
</svg>
