<svg width="26" height="26" viewBox="0 0 26 26" fill="none" xmlns="http://www.w3.org/2000/svg">
<path d="M13 1L13.3254 0.620372C13.1382 0.459876 12.8618 0.459876 12.6746 0.620372L13 1ZM1 11.2857L0.674604 10.9061L0.5 11.0557V11.2857H1ZM9.57143 25V25.5C9.84757 25.5 10.0714 25.2761 10.0714 25H9.57143ZM16.4286 25H15.9286C15.9286 25.2761 16.1524 25.5 16.4286 25.5V25ZM25 11.2857H25.5V11.0557L25.3254 10.9061L25 11.2857ZM2.71429 25.5H9.57143V24.5H2.71429V25.5ZM25.3254 10.9061L13.3254 0.620372L12.6746 1.37963L24.6746 11.6653L25.3254 10.9061ZM12.6746 0.620372L0.674604 10.9061L1.3254 11.6653L13.3254 1.37963L12.6746 0.620372ZM10.0714 25V19.8571H9.07143V25H10.0714ZM15.9286 19.8571V25H16.9286V19.8571H15.9286ZM16.4286 25.5H23.2857V24.5H16.4286V25.5ZM25.5 23.2857V11.2857H24.5V23.2857H25.5ZM0.5 11.2857V23.2857H1.5V11.2857H0.5ZM13 16.9286C14.6174 16.9286 15.9286 18.2397 15.9286 19.8571H16.9286C16.9286 17.6875 15.1697 15.9286 13 15.9286V16.9286ZM13 15.9286C10.8303 15.9286 9.07143 17.6875 9.07143 19.8571H10.0714C10.0714 18.2397 11.3826 16.9286 13 16.9286V15.9286ZM23.2857 25.5C24.5086 25.5 25.5 24.5086 25.5 23.2857H24.5C24.5 23.9563 23.9563 24.5 23.2857 24.5V25.5ZM2.71429 24.5C2.04365 24.5 1.5 23.9563 1.5 23.2857H0.5C0.5 24.5086 1.49137 25.5 2.71429 25.5V24.5Z" fill="#FFFCFC"/>
</svg>
