<svg width="21" height="22" viewBox="0 0 21 22" fill="none" xmlns="http://www.w3.org/2000/svg">
<path d="M8.80833 0.613096C9.28173 0.217154 9.8809 0 10.5 0C11.1191 0 11.7183 0.217154 12.1917 0.613096L20.0667 7.2033C20.6582 7.69884 21 8.4271 21 9.19472V19.9738C21 20.5112 20.7849 21.0266 20.402 21.4066C20.0191 21.7865 19.4998 22 18.9583 22H14.875C14.3335 22 13.8142 21.7865 13.4313 21.4066C13.0484 21.0266 12.8333 20.5112 12.8333 19.9738V14.1767C12.8333 14.1 12.8026 14.0263 12.7479 13.9721C12.6932 13.9178 12.619 13.8873 12.5417 13.8873H8.45833C8.38098 13.8873 8.30679 13.9178 8.25209 13.9721C8.1974 14.0263 8.16667 14.1 8.16667 14.1767V19.9738C8.16667 20.5112 7.95156 21.0266 7.56868 21.4066C7.18579 21.7865 6.66648 22 6.125 22H2.04167C1.77355 22 1.50806 21.9476 1.26035 21.8458C1.01265 21.7439 0.787577 21.5947 0.59799 21.4066C0.408404 21.2184 0.258016 20.995 0.155413 20.7492C0.0528094 20.5034 0 20.2399 0 19.9738V9.19472C0 8.4271 0.341833 7.69884 0.933333 7.2033L8.80833 0.613096ZM11.0635 1.94109C10.9058 1.80932 10.7062 1.73705 10.5 1.73705C10.2938 1.73705 10.0942 1.80932 9.9365 1.94109L2.0615 8.53014C1.96405 8.61155 1.88568 8.7131 1.83188 8.82769C1.77807 8.94228 1.75013 9.06714 1.75 9.19356V19.9727C1.75 20.1325 1.88067 20.2621 2.04167 20.2621H6.125C6.20235 20.2621 6.27654 20.2316 6.33124 20.1774C6.38594 20.1231 6.41667 20.0495 6.41667 19.9727V14.1756C6.41667 13.056 7.33133 12.1494 8.45833 12.1494H12.5417C13.6687 12.1494 14.5833 13.056 14.5833 14.1756V19.9727C14.5833 20.1325 14.714 20.2621 14.875 20.2621H18.9583C19.0357 20.2621 19.1099 20.2316 19.1646 20.1774C19.2193 20.1231 19.25 20.0495 19.25 19.9727V9.19356C19.2499 9.06714 19.2219 8.94228 19.1681 8.82769C19.1143 8.7131 19.036 8.61155 18.9385 8.53014L11.0635 1.94109Z" fill="#F0EFEA"/>
</svg>
