<svg width="24" height="21" viewBox="0 0 24 21" fill="none" xmlns="http://www.w3.org/2000/svg">
<path d="M0 3.75H21.5C22.8807 3.75 24 4.86929 24 6.25V6.25H0V3.75Z" fill="#F0EFEA"/>
<path d="M0 8.75H24V15.2C24 16.8802 24 17.7202 23.673 18.362C23.3854 18.9265 22.9265 19.3854 22.362 19.673C21.7202 20 20.8802 20 19.2 20H4.8C3.11984 20 2.27976 20 1.63803 19.673C1.07354 19.3854 0.614601 18.9265 0.32698 18.362C0 17.7202 0 16.8802 0 15.2V8.75Z" fill="#F0EFEA"/>
<path d="M0 3.75C0 2.10626 0 1.28439 0.453979 0.731213C0.537088 0.629945 0.629945 0.537088 0.731213 0.453979C1.28439 0 2.10626 0 3.75 0H7.75154C8.53287 0 8.92353 0 9.27791 0.140141C9.6323 0.280283 9.9173 0.547472 10.4873 1.08185L13.3333 3.75H0V3.75Z" fill="#F0EFEA"/>
<path d="M13.3 19.2075L13.2844 15.5406L14.8603 15.9639C14.9663 15.9924 15.0794 15.958 15.1473 15.8774C15.2153 15.7962 15.2257 15.6857 15.1728 15.5944L12.6327 11.2521C12.5846 11.1706 12.493 11.1195 12.3941 11.1198C12.2944 11.1202 12.2038 11.1719 12.1563 11.2537L9.65105 15.6137C9.59886 15.7045 9.61022 15.8157 9.67883 15.8964C9.74801 15.9766 9.8615 16.0102 9.96653 15.9809L11.5369 15.5474L11.5525 19.2136C11.5544 19.6673 11.947 20.0349 12.4297 20.0332C12.9122 20.0315 13.3019 19.6612 13.3 19.2075Z" fill="#171A21"/>
</svg>
