<svg width="18" height="18" viewBox="0 0 18 18" fill="none" xmlns="http://www.w3.org/2000/svg">
<circle cx="9" cy="9" r="9" fill="#F0EFEA"/>
<path fill-rule="evenodd" clip-rule="evenodd" d="M14.7897 5.20647C14.9244 5.33884 15 5.51828 15 5.70537C15 5.89246 14.9244 6.0719 14.7897 6.20427L8.07943 12.7935C7.94462 12.9257 7.76189 13 7.57136 13C7.38083 13 7.1981 12.9257 7.06329 12.7935L3.22883 9.02824C3.15819 8.96361 3.10154 8.88566 3.06224 8.79906C3.02294 8.71246 3.00182 8.61898 3.00011 8.52418C2.99841 8.42939 3.01617 8.33523 3.05233 8.24732C3.08849 8.15941 3.14231 8.07956 3.21058 8.01252C3.27885 7.94548 3.36017 7.89263 3.4497 7.85712C3.53922 7.82161 3.63511 7.80417 3.73165 7.80585C3.82818 7.80752 3.92338 7.82827 4.01158 7.86685C4.09977 7.90544 4.17914 7.96107 4.24496 8.03044L7.57136 11.2968L13.7736 5.20647C13.9084 5.07426 14.0911 5 14.2817 5C14.4722 5 14.6549 5.07426 14.7897 5.20647Z" fill="#1E2129"/>
</svg>
