<svg width="36" height="48" viewBox="0 0 36 48" fill="none" xmlns="http://www.w3.org/2000/svg">
<g filter="url(#filter0_biiiii_225_222)">
<path d="M20.845 1H10.7142C6.13487 1 3.84522 1 2.42261 2.49701C1 3.99402 1 6.40342 1 11.2222V36.7778C1 41.5966 1 44.006 2.42261 45.503C3.84522 47 6.13487 47 10.7142 47H25.2854C29.8647 47 32.1544 47 33.577 45.503C34.9996 44.006 34.9996 41.5966 34.9996 36.7778V15.8949C34.9996 14.8503 34.9996 14.328 34.8148 13.8584C34.6299 13.3887 34.2789 13.0194 33.577 12.2808L24.2795 2.49701C23.5776 1.75838 23.2266 1.38906 22.7803 1.19453C22.334 1 21.8377 1 20.845 1Z" fill="#FFBB2D" fill-opacity="0.15"/>
<path d="M20.845 1H10.7142C6.13487 1 3.84522 1 2.42261 2.49701C1 3.99402 1 6.40342 1 11.2222V36.7778C1 41.5966 1 44.006 2.42261 45.503C3.84522 47 6.13487 47 10.7142 47H25.2854C29.8647 47 32.1544 47 33.577 45.503C34.9996 44.006 34.9996 41.5966 34.9996 36.7778V15.8949C34.9996 14.8503 34.9996 14.328 34.8148 13.8584C34.6299 13.3887 34.2789 13.0194 33.577 12.2808L24.2795 2.49701C23.5776 1.75838 23.2266 1.38906 22.7803 1.19453C22.334 1 21.8377 1 20.845 1Z" stroke="#FFBB2D" stroke-width="1.5"/>
</g>
<path d="M20.4287 1V11.2222C20.4287 13.6316 20.4287 14.8363 21.14 15.5848C21.8513 16.3333 22.9962 16.3333 25.2858 16.3333H35" stroke="#FFBB2D" stroke-width="1.5"/>
<defs>
<filter id="filter0_biiiii_225_222" x="-3.75" y="-3.75" width="43.4998" height="55.5" filterUnits="userSpaceOnUse" color-interpolation-filters="sRGB">
<feFlood flood-opacity="0" result="BackgroundImageFix"/>
<feGaussianBlur in="BackgroundImageFix" stdDeviation="2"/>
<feComposite in2="SourceAlpha" operator="in" result="effect1_backgroundBlur_225_222"/>
<feBlend mode="normal" in="SourceGraphic" in2="effect1_backgroundBlur_225_222" result="shape"/>
<feColorMatrix in="SourceAlpha" type="matrix" values="0 0 0 0 0 0 0 0 0 0 0 0 0 0 0 0 0 0 127 0" result="hardAlpha"/>
<feOffset dx="1" dy="2"/>
<feGaussianBlur stdDeviation="0.5"/>
<feComposite in2="hardAlpha" operator="arithmetic" k2="-1" k3="1"/>
<feColorMatrix type="matrix" values="0 0 0 0 1 0 0 0 0 0.733333 0 0 0 0 0.176471 0 0 0 1 0"/>
<feBlend mode="normal" in2="shape" result="effect2_innerShadow_225_222"/>
<feColorMatrix in="SourceAlpha" type="matrix" values="0 0 0 0 0 0 0 0 0 0 0 0 0 0 0 0 0 0 127 0" result="hardAlpha"/>
<feOffset dy="1"/>
<feGaussianBlur stdDeviation="22"/>
<feComposite in2="hardAlpha" operator="arithmetic" k2="-1" k3="1"/>
<feColorMatrix type="matrix" values="0 0 0 0 1 0 0 0 0 0.733333 0 0 0 0 0.176471 0 0 0 0.3 0"/>
<feBlend mode="normal" in2="effect2_innerShadow_225_222" result="effect3_innerShadow_225_222"/>
<feColorMatrix in="SourceAlpha" type="matrix" values="0 0 0 0 0 0 0 0 0 0 0 0 0 0 0 0 0 0 127 0" result="hardAlpha"/>
<feOffset dy="-1"/>
<feGaussianBlur stdDeviation="2"/>
<feComposite in2="hardAlpha" operator="arithmetic" k2="-1" k3="1"/>
<feColorMatrix type="matrix" values="0 0 0 0 1 0 0 0 0 0.733333 0 0 0 0 0.176471 0 0 0 0.5 0"/>
<feBlend mode="normal" in2="effect3_innerShadow_225_222" result="effect4_innerShadow_225_222"/>
<feColorMatrix in="SourceAlpha" type="matrix" values="0 0 0 0 0 0 0 0 0 0 0 0 0 0 0 0 0 0 127 0" result="hardAlpha"/>
<feOffset dy="1"/>
<feGaussianBlur stdDeviation="2"/>
<feComposite in2="hardAlpha" operator="arithmetic" k2="-1" k3="1"/>
<feColorMatrix type="matrix" values="0 0 0 0 1 0 0 0 0 0.733333 0 0 0 0 0.176471 0 0 0 0.3 0"/>
<feBlend mode="normal" in2="effect4_innerShadow_225_222" result="effect5_innerShadow_225_222"/>
<feColorMatrix in="SourceAlpha" type="matrix" values="0 0 0 0 0 0 0 0 0 0 0 0 0 0 0 0 0 0 127 0" result="hardAlpha"/>
<feOffset dy="4"/>
<feGaussianBlur stdDeviation="5"/>
<feComposite in2="hardAlpha" operator="arithmetic" k2="-1" k3="1"/>
<feColorMatrix type="matrix" values="0 0 0 0 1 0 0 0 0 0.988235 0 0 0 0 0.988235 0 0 0 0.25 0"/>
<feBlend mode="normal" in2="effect5_innerShadow_225_222" result="effect6_innerShadow_225_222"/>
</filter>
</defs>
</svg>
