<svg width="48" height="50" viewBox="0 0 48 50" fill="none" xmlns="http://www.w3.org/2000/svg">
<path d="M1 9C1 5.22876 1 3.34315 2.17157 2.17157C3.34315 1 5.22876 1 9 1H39C42.7712 1 44.6569 1 45.8284 2.17157C47 3.34315 47 5.22876 47 9V41C47 44.7712 47 46.6569 45.8284 47.8284C44.6569 49 42.7712 49 39 49H9C5.22876 49 3.34315 49 2.17157 47.8284C1 46.6569 1 44.7712 1 41V9Z" stroke="#FFBB2D" stroke-width="2"/>
<mask id="mask0_224_1421" style="mask-type:alpha" maskUnits="userSpaceOnUse" x="3" y="1" width="42" height="45">
<path d="M3.96777 7.00001C3.96777 4.17157 3.96777 2.75736 4.84645 1.87868C5.72513 1 7.13935 1 9.96777 1H38.0323C40.8607 1 42.2749 1 43.1536 1.87868C44.0323 2.75736 44.0323 4.17157 44.0323 7V39.9032C44.0323 42.7317 44.0323 44.1459 43.1536 45.0246C42.2749 45.9032 40.8607 45.9032 38.0323 45.9032H9.96778C7.13935 45.9032 5.72513 45.9032 4.84645 45.0246C3.96777 44.1459 3.96777 42.7317 3.96777 39.9032V7.00001Z" fill="#273B4A"/>
</mask>
<g mask="url(#mask0_224_1421)">
<g filter="url(#filter0_biiiii_224_1421)">
<path d="M11.3499 19.7515L3.36931 26.3496C1.82682 27.6249 1.05557 28.2626 0.673949 29.145C0.292323 30.0274 0.355898 31.0261 0.483049 33.0235L1.46921 48.5149H45.0602V36.0584C45.0602 34.0866 45.0602 33.1007 44.6345 32.2533C44.2089 31.4059 43.4179 30.8174 41.8359 29.6403L35.1235 24.6456C33.9147 23.7461 33.3102 23.2963 32.6195 23.314C31.9288 23.3317 31.3481 23.8117 30.1869 24.7718L24.5517 29.4309C23.6695 30.1602 23.2285 30.5248 22.7601 30.4295C22.2918 30.3341 22.0284 29.8261 21.5017 28.8099L17.4499 20.9935C16.3964 18.9611 15.8697 17.9449 14.933 17.7542C13.9963 17.5635 13.1141 18.2929 11.3499 19.7515Z" fill="#FFBB2D" fill-opacity="0.15"/>
<path d="M11.3499 19.7515L3.36931 26.3496C1.82682 27.6249 1.05557 28.2626 0.673949 29.145C0.292323 30.0274 0.355898 31.0261 0.483049 33.0235L1.46921 48.5149H45.0602V36.0584C45.0602 34.0866 45.0602 33.1007 44.6345 32.2533C44.2089 31.4059 43.4179 30.8174 41.8359 29.6403L35.1235 24.6456C33.9147 23.7461 33.3102 23.2963 32.6195 23.314C31.9288 23.3317 31.3481 23.8117 30.1869 24.7718L24.5517 29.4309C23.6695 30.1602 23.2285 30.5248 22.7601 30.4295C22.2918 30.3341 22.0284 29.8261 21.5017 28.8099L17.4499 20.9935C16.3964 18.9611 15.8697 17.9449 14.933 17.7542C13.9963 17.5635 13.1141 18.2929 11.3499 19.7515Z" stroke="#FFBB2D" stroke-width="2"/>
</g>
</g>
<ellipse cx="35.4996" cy="13" rx="3.83333" ry="4" fill="#FFBB2D"/>
<defs>
<filter id="filter0_biiiii_224_1421" x="-4.61536" y="12.7246" width="54.6758" height="40.791" filterUnits="userSpaceOnUse" color-interpolation-filters="sRGB">
<feFlood flood-opacity="0" result="BackgroundImageFix"/>
<feGaussianBlur in="BackgroundImageFix" stdDeviation="2"/>
<feComposite in2="SourceAlpha" operator="in" result="effect1_backgroundBlur_224_1421"/>
<feBlend mode="normal" in="SourceGraphic" in2="effect1_backgroundBlur_224_1421" result="shape"/>
<feColorMatrix in="SourceAlpha" type="matrix" values="0 0 0 0 0 0 0 0 0 0 0 0 0 0 0 0 0 0 127 0" result="hardAlpha"/>
<feOffset dx="1" dy="2"/>
<feGaussianBlur stdDeviation="0.5"/>
<feComposite in2="hardAlpha" operator="arithmetic" k2="-1" k3="1"/>
<feColorMatrix type="matrix" values="0 0 0 0 1 0 0 0 0 0.733333 0 0 0 0 0.176471 0 0 0 1 0"/>
<feBlend mode="normal" in2="shape" result="effect2_innerShadow_224_1421"/>
<feColorMatrix in="SourceAlpha" type="matrix" values="0 0 0 0 0 0 0 0 0 0 0 0 0 0 0 0 0 0 127 0" result="hardAlpha"/>
<feOffset dy="1"/>
<feGaussianBlur stdDeviation="22"/>
<feComposite in2="hardAlpha" operator="arithmetic" k2="-1" k3="1"/>
<feColorMatrix type="matrix" values="0 0 0 0 1 0 0 0 0 0.733333 0 0 0 0 0.176471 0 0 0 0.3 0"/>
<feBlend mode="normal" in2="effect2_innerShadow_224_1421" result="effect3_innerShadow_224_1421"/>
<feColorMatrix in="SourceAlpha" type="matrix" values="0 0 0 0 0 0 0 0 0 0 0 0 0 0 0 0 0 0 127 0" result="hardAlpha"/>
<feOffset dy="-1"/>
<feGaussianBlur stdDeviation="2"/>
<feComposite in2="hardAlpha" operator="arithmetic" k2="-1" k3="1"/>
<feColorMatrix type="matrix" values="0 0 0 0 1 0 0 0 0 0.733333 0 0 0 0 0.176471 0 0 0 0.5 0"/>
<feBlend mode="normal" in2="effect3_innerShadow_224_1421" result="effect4_innerShadow_224_1421"/>
<feColorMatrix in="SourceAlpha" type="matrix" values="0 0 0 0 0 0 0 0 0 0 0 0 0 0 0 0 0 0 127 0" result="hardAlpha"/>
<feOffset dy="1"/>
<feGaussianBlur stdDeviation="2"/>
<feComposite in2="hardAlpha" operator="arithmetic" k2="-1" k3="1"/>
<feColorMatrix type="matrix" values="0 0 0 0 1 0 0 0 0 0.733333 0 0 0 0 0.176471 0 0 0 0.3 0"/>
<feBlend mode="normal" in2="effect4_innerShadow_224_1421" result="effect5_innerShadow_224_1421"/>
<feColorMatrix in="SourceAlpha" type="matrix" values="0 0 0 0 0 0 0 0 0 0 0 0 0 0 0 0 0 0 127 0" result="hardAlpha"/>
<feOffset dy="4"/>
<feGaussianBlur stdDeviation="5"/>
<feComposite in2="hardAlpha" operator="arithmetic" k2="-1" k3="1"/>
<feColorMatrix type="matrix" values="0 0 0 0 1 0 0 0 0 0.988235 0 0 0 0 0.988235 0 0 0 0.25 0"/>
<feBlend mode="normal" in2="effect5_innerShadow_224_1421" result="effect6_innerShadow_224_1421"/>
</filter>
</defs>
</svg>
